<?xml version="1.0" standalone="no"?>
<!DOCTYPE svg PUBLIC "-//W3C//DTD SVG 20010904//EN"
 "http://www.w3.org/TR/2001/REC-SVG-20010904/DTD/svg10.dtd">
<svg version="1.0" xmlns="http://www.w3.org/2000/svg"
 width="16.000000pt" height="16.000000pt" viewBox="0 0 16.000000 16.000000"
 preserveAspectRatio="xMidYMid meet">
<metadata>
Created by potrace 1.11, written by Peter Selinger 2001-2013
</metadata>
<g transform="translate(0.000000,16.000000) scale(0.003125,-0.003125)"
fill="#000000" stroke="none">
<path d="M2461 5093 c-16 -16 -81 -95 -145 -178 -64 -82 -122 -157 -129 -165
-7 -8 -66 -85 -133 -170 -66 -85 -252 -323 -412 -528 -286 -366 -292 -374
-292 -420 -1 -26 -1 -376 -1 -779 l0 -731 -53 -49 c-28 -26 -90 -82 -136 -123
-145 -129 -285 -254 -290 -260 -3 -3 -25 -23 -50 -45 -47 -42 -174 -155 -248
-221 -56 -51 -63 -94 -22 -135 l28 -29 1934 0 c1800 0 1935 1 1958 17 34 23
40 33 40 67 0 31 -31 66 -185 202 -124 111 -171 153 -295 264 -63 57 -151 135
-195 174 -43 39 -95 85 -114 103 l-36 31 0 779 0 779 -140 179 c-117 150 -215
275 -278 355 -7 8 -59 76 -117 150 -58 74 -203 260 -323 413 -120 154 -223
287 -230 298 -13 21 -65 49 -91 49 -9 0 -29 -12 -45 -27z m78 -215 c8 -13 55
-75 106 -138 119 -150 770 -983 779 -998 5 -9 -220 -12 -909 -12 l-916 0 63
82 c35 45 133 170 218 279 85 108 207 264 270 346 63 81 119 153 125 159 5 7
61 77 123 158 63 80 117 146 120 146 4 0 13 -10 21 -22z m982 -1348 c0 -51 0
-1332 0 -1351 -1 -13 -105 -15 -1006 -15 l-1005 0 0 697 c0 490 3 698 11 701
6 2 458 3 1005 3 l994 0 1 -35z m0 -1552 c0 -28 0 -505 0 -533 -1 -20 -8 -20
-1006 -20 l-1005 0 0 287 0 288 1005 0 1005 0 1 -22z m-2174 -320 l-2 -233
-257 0 c-142 0 -258 2 -258 6 0 3 15 19 33 34 70 63 305 272 347 311 101 92
125 113 132 114 4 0 6 -105 5 -232z m2377 206 c17 -15 69 -61 116 -103 130
-117 180 -162 229 -206 25 -22 67 -60 94 -85 l48 -45 -260 0 c-227 0 -261 2
-262 15 -3 39 -4 450 0 450 2 0 17 -12 35 -26z"/>
<path d="M2498 3425 c-2 -1 -29 -5 -61 -9 -80 -8 -180 -50 -252 -104 -207
-155 -281 -414 -187 -652 147 -374 625 -474 912 -190 250 248 211 657 -83 859
-40 27 -153 80 -172 80 -3 0 -27 3 -53 6 -90 12 -101 13 -104 10z m183 -203
c184 -88 273 -293 208 -484 -105 -311 -530 -363 -705 -86 -53 84 -74 203 -53
299 21 96 90 193 174 247 107 69 261 79 376 24z"/>
<path d="M2413 3007 c-143 -139 -157 -158 -148 -198 9 -39 42 -69 77 -69 30 0
68 31 186 150 94 95 112 119 112 148 -1 42 -30 73 -75 77 -36 4 -42 -1 -152
-108z"/>
<path d="M2568 2812 c-74 -75 -88 -93 -88 -121 0 -43 38 -81 81 -81 28 0 46
14 121 88 74 75 88 93 88 121 0 21 -9 41 -25 56 -15 16 -35 25 -56 25 -28 0
-46 -14 -121 -88z"/>
<path d="M719 3264 l-24 -26 0 -420 0 -420 28 -24 c30 -26 72 -31 98 -11 38
29 39 46 39 468 l-1 411 -24 24 c-33 33 -84 32 -116 -2z"/>
<path d="M4323 2942 c-13 -2 -32 -15 -43 -29 -19 -24 -20 -40 -20 -302 0 -298
3 -315 52 -339 35 -17 75 -6 96 26 14 22 17 61 17 300 0 187 -3 283 -11 302
-13 29 -54 48 -91 42z"/>
<path d="M4835 2590 c-52 -20 -50 13 -52 -794 -1 -444 3 -764 8 -782 8 -26 27
-43 69 -60 16 -7 70 31 78 54 5 15 8 359 8 784 -1 744 -1 758 -21 777 -24 23
-63 32 -90 21z"/>
<path d="M196 2480 l-22 -27 0 -896 1 -895 22 -24 c33 -34 83 -35 114 -2 l24
26 1 886 c2 970 3 945 -54 956 -46 8 -62 4 -86 -24z"/>
<path d="M2373 1136 c-128 -48 -224 -147 -263 -274 -39 -125 -22 -222 71 -407
53 -104 242 -396 277 -429 12 -10 36 -20 54 -23 44 -5 71 23 192 205 169 255
247 435 239 551 -10 158 -106 295 -253 365 -56 26 -78 31 -160 33 -78 1 -106
-2 -157 -21z m247 -158 c51 -22 96 -63 128 -117 22 -38 27 -58 27 -116 0 -59
-6 -82 -35 -145 -39 -84 -97 -187 -172 -303 l-51 -77 -52 77 c-131 197 -205
353 -211 440 -6 100 78 215 181 250 41 14 142 9 185 -9z"/>
</g>
</svg>
