<?xml version="1.0" standalone="no"?>
<!DOCTYPE svg PUBLIC "-//W3C//DTD SVG 20010904//EN"
 "http://www.w3.org/TR/2001/REC-SVG-20010904/DTD/svg10.dtd">
<svg version="1.0" xmlns="http://www.w3.org/2000/svg"
 width="16.000000pt" height="16.000000pt" viewBox="0 0 16.000000 16.000000"
 preserveAspectRatio="xMidYMid meet">
<metadata>
Created by potrace 1.11, written by Peter Selinger 2001-2013
</metadata>
<g transform="translate(0.000000,16.000000) scale(0.004533,-0.004533)"
fill="#000000" stroke="none">
<path d="M899 3503 c-1 -16 -2 -35 -3 -43 -2 -8 -3 -83 -4 -166 l-2 -150 -391
-390 c-215 -214 -396 -398 -402 -409 -16 -30 -17 -1227 0 -1266 7 -16 24 -34
38 -39 16 -6 174 -10 391 -10 l364 0 0 -30 c0 -45 43 -132 86 -175 59 -57 114
-78 222 -83 50 -2 92 -6 92 -8 0 -2 -8 -25 -19 -51 -76 -194 -57 -443 49 -629
l31 -54 107 0 106 0 -23 21 c-39 37 -99 137 -120 202 -23 67 -39 171 -35 215
10 98 18 139 40 193 44 107 41 105 144 106 77 1 90 -1 91 -16 0 -9 0 -41 0
-71 0 -68 15 -117 39 -130 51 -27 119 5 121 58 1 15 3 52 4 82 1 30 3 60 4 66
0 6 36 11 91 11 l91 1 30 -59 c102 -203 73 -454 -73 -631 l-39 -48 104 0 105
0 29 53 c104 187 125 403 57 606 -14 40 -23 75 -22 77 2 1 37 4 78 5 96 3 134
13 191 51 60 40 106 109 121 181 l12 57 374 0 373 0 24 25 c18 18 25 36 26 67
4 197 1 1190 -4 1209 -4 15 -168 185 -400 415 l-394 390 -6 180 c-3 98 -8 187
-12 197 -6 14 -20 17 -87 17 l-79 0 7 -32 c3 -18 7 -340 9 -716 2 -530 5 -689
15 -707 16 -30 63 -47 94 -35 56 21 56 19 56 463 l0 409 320 -318 320 -318 0
-542 0 -542 -320 1 -320 0 0 329 c0 231 -3 336 -12 351 -16 31 -39 46 -69 47
-27 0 -78 -40 -80 -62 0 -7 -1 -107 -2 -223 l-2 -210 -305 0 -305 0 0 110 c-1
61 -5 121 -9 133 -10 31 -67 55 -98 43 -46 -17 -53 -37 -55 -150 -1 -58 -2
-114 -2 -123 -1 -17 -22 -18 -306 -18 l-306 0 4 1033 c1 567 7 1042 11 1055 8
22 7 22 -78 22 l-86 0 -1 -27z m-9 -1457 l0 -853 -320 0 c-287 0 -320 2 -321
16 0 9 0 252 -1 540 l0 523 313 314 c173 173 317 314 321 314 5 0 8 -384 8
-854z m773 -951 c-1 -88 -2 -167 -2 -176 -1 -15 -27 -16 -258 -15 -222 1 -262
4 -289 18 -52 28 -64 69 -64 212 l0 126 307 -2 306 -3 0 -160z m773 33 c-1
-146 -13 -183 -65 -209 -35 -17 -538 -22 -544 -5 -3 9 -1 337 2 344 0 1 138 2
305 2 l304 0 -2 -132z"/>
<path d="M1620 3451 c-251 -80 -368 -378 -236 -603 119 -204 385 -269 581
-143 281 179 250 585 -54 728 -82 39 -203 46 -291 18z m235 -168 c119 -62 170
-194 124 -318 -38 -102 -122 -159 -234 -160 -141 0 -242 94 -253 237 -11 145
114 271 262 264 38 -2 76 -11 101 -23z"/>
<path d="M2937 799 c-167 -25 -292 -171 -299 -347 -1 -27 5 -41 26 -59 53 -45
119 -18 131 54 12 69 25 99 58 133 39 41 84 60 137 60 160 0 245 -167 156
-308 -21 -33 -23 -49 -17 -97 2 -17 55 -44 81 -42 37 3 86 60 111 128 20 54
28 64 63 80 23 10 65 24 94 30 l52 12 0 80 0 79 -47 -5 c-27 -3 -70 -13 -96
-22 -26 -10 -49 -16 -51 -14 -1 2 -15 26 -30 53 -80 138 -218 207 -369 185z"/>
<path d="M58 597 l-58 -21 0 -99 c0 -95 1 -99 18 -84 9 8 41 27 71 41 71 32
164 32 232 -2 57 -28 116 -85 135 -132 8 -19 25 -45 37 -58 l21 -23 -34 -26
c-54 -42 -103 -97 -127 -145 l-22 -43 90 -3 c89 -3 91 -2 119 28 57 61 159 85
251 60 20 -6 57 -28 82 -50 l45 -40 86 0 c47 0 86 3 86 8 0 21 -63 112 -102
147 -83 76 -169 108 -290 108 -76 -1 -78 0 -72 23 9 35 -48 142 -109 203 -33
33 -79 65 -127 89 -69 33 -83 36 -175 38 -81 2 -111 -2 -157 -19z"/>
<path d="M0 263 c1 -96 3 -111 23 -135 44 -54 114 -53 142 2 17 33 10 64 -24
110 -30 41 -122 130 -133 130 -4 0 -8 -48 -8 -107z"/>
</g>
</svg>
