<?xml version="1.0" standalone="no"?>
<!DOCTYPE svg PUBLIC "-//W3C//DTD SVG 20010904//EN"
 "http://www.w3.org/TR/2001/REC-SVG-20010904/DTD/svg10.dtd">
<svg version="1.0" xmlns="http://www.w3.org/2000/svg"
 width="16.000000pt" height="16.000000pt" viewBox="0 0 16.000000 16.000000"
 preserveAspectRatio="xMidYMid meet">
<metadata>
Created by potrace 1.11, written by Peter Selinger 2001-2013
</metadata>
<g transform="translate(0.000000,16.000000) scale(0.002602,-0.002602)"
fill="#000000" stroke="none">
<path d="M3009 5629 c-98 -22 -107 -30 -616 -556 -300 -309 -296 -304 -333
-381 l-30 -63 0 -422 c0 -390 -1 -424 -17 -438 -10 -8 -54 -55 -98 -104 -108
-120 -173 -193 -276 -306 -48 -51 -109 -118 -135 -148 -27 -30 -60 -66 -72
-80 -13 -14 -56 -62 -95 -105 -40 -44 -91 -100 -115 -125 -99 -106 -133 -188
-128 -304 6 -132 84 -249 202 -304 68 -31 75 -32 435 -32 l315 -1 21 -43 c18
-38 128 -187 157 -212 6 -5 33 -39 61 -75 27 -36 52 -67 55 -70 3 -3 23 -27
44 -55 113 -144 177 -190 296 -210 36 -7 813 -8 840 -2 82 19 152 57 206 111
50 51 389 487 402 517 l17 39 307 1 c170 1 311 2 316 3 4 1 23 6 42 10 118 28
220 136 250 264 22 95 -4 218 -61 290 -26 34 -136 157 -238 267 -25 28 -84 93
-131 145 -47 52 -92 102 -100 110 -8 8 -76 82 -150 165 -74 82 -153 169 -175
193 l-40 44 -1 436 -1 437 -36 75 c-31 63 -60 99 -183 225 -80 83 -256 263
-390 401 -279 286 -304 304 -444 309 -36 1 -81 -2 -101 -6z m341 -338 c137
-139 400 -409 550 -565 l34 -36 -838 0 c-462 0 -837 2 -835 4 29 30 524 540
605 624 113 118 144 141 204 152 80 14 103 -1 280 -179z m645 -1823 l0 -1053
-900 -3 -900 -2 0 1055 0 1055 900 0 900 0 0 -1052z m-1969 -1035 c-2 -3 -142
-5 -309 -5 -283 0 -309 2 -351 20 -117 52 -139 209 -43 312 17 19 75 82 127
140 52 58 112 123 132 145 20 22 45 50 55 61 10 12 56 63 103 114 47 51 92
100 100 110 8 10 53 59 100 110 l85 93 3 -548 c1 -302 0 -550 -2 -552z m2173
1031 c11 -14 62 -71 113 -126 51 -56 98 -106 103 -112 6 -6 51 -56 100 -111
50 -55 108 -120 130 -144 22 -25 67 -74 101 -110 34 -36 75 -82 93 -102 60
-70 76 -144 46 -216 -20 -48 -41 -71 -89 -95 -35 -18 -60 -20 -335 -20 l-296
0 0 531 c0 292 3 531 7 531 3 0 16 -12 27 -26z m-281 -1253 c-327 -408 -334
-416 -385 -437 -49 -21 -830 -20 -876 0 -46 21 -59 35 -192 201 -65 83 -122
152 -125 155 -3 3 -24 29 -48 58 l-43 52 846 0 846 0 -23 -29z"/>
<path d="M3025 3838 c-145 -19 -255 -84 -357 -209 -88 -109 -128 -267 -105
-415 28 -185 190 -371 367 -423 19 -6 49 -14 65 -19 47 -14 184 -7 250 12 184
54 341 223 379 409 75 363 -231 693 -599 645z m175 -180 c203 -62 312 -275
244 -477 -63 -186 -272 -289 -464 -229 -113 36 -220 152 -245 268 -60 275 199
519 465 438z"/>
<path d="M2488 1298 c-314 -259 -307 -252 -319 -295 -9 -29 24 -81 56 -89 26
-6 76 2 85 15 3 3 80 69 172 145 92 76 170 145 174 154 18 42 14 63 -15 92
-45 45 -77 40 -153 -22z"/>
<path d="M3632 1325 c-45 -20 -62 -74 -36 -118 7 -10 127 -157 159 -193 6 -7
26 -31 45 -55 98 -123 121 -137 178 -113 38 16 60 71 41 106 -26 49 -301 369
-325 378 -14 6 -26 10 -27 10 -1 -1 -17 -7 -35 -15z"/>
<path d="M3060 1102 c-31 -25 -36 -68 -35 -309 1 -178 4 -215 18 -236 33 -50
117 -43 140 12 9 20 12 96 11 253 -1 122 -2 229 -3 236 -2 23 -53 62 -81 62
-15 0 -38 -8 -50 -18z"/>
</g>
</svg>
